PathFileType	4	(X/Y/Z)	/Users/niels/Desktop/University/Third Semester/Perception and Action/Exam/Gymnastics Motion Tracking/Code for Gym Tracking/Analyzed Data/Webcam_Backflip/id3_5_trajectory_Sports2D/id3_5_trajectory_Sports2D_px_person00.trc
DataRate	CameraRate	NumFrames	NumMarkers	Units	OrigDataRate	OrigDataStartFrame	OrigNumFrames
29.8125	29.8125	9	22	m	29.8125	100	160
Frame#	Time	Hip			RHip			RKnee			RAnkle			RBigToe			RSmallToe			RHeel			LHip			LKnee			LAnkle			LBigToe			LSmallToe			LHeel			Neck			Head			Nose			RShoulder			RElbow			RWrist			LShoulder			LElbow			LWrist		
		X1	Y1	Z1	X2	Y2	Z2	X3	Y3	Z3	X4	Y4	Z4	X5	Y5	Z5	X6	Y6	Z6	X7	Y7	Z7	X8	Y8	Z8	X9	Y9	Z9	X10	Y10	Z10	X11	Y11	Z11	X12	Y12	Z12	X13	Y13	Z13	X14	Y14	Z14	X15	Y15	Z15	X16	Y16	Z16	X17	Y17	Z17	X18	Y18	Z18	X19	Y19	Z19	X20	Y20	Z20	X21	Y21	Z21	X22	Y22	Z22
100	3.354297693920335	1.2968094028101425	-0.5799014920887721	0.0	1.2902803672097531	-0.5802073823452886	0.0	1.2899608876406528	-0.6821440918404386	0.0	1.284368262331406	-0.8034934212330265	0.0	1.3098074851903951	-0.8239252968511578	0.0	1.3000957838668938	-0.8267676075322373	0.0	1.277382872423406	-0.819333036852148	0.0	1.3013242906423699	-0.5799676141339863	0.0	1.2766750282014134	-0.679997919001605	0.0	1.2543915820656601	-0.7927955794768806	0.0	1.2921806570500005	-0.8032931391474334	0.0	1.280992622272382	-0.8039938298662437	0.0	1.2455155819413561	-0.8112862723366745	0.0	1.3205253434223125	-0.40640829431603664	0.0	1.3441805002574987	-0.3298647004686749	0.0	1.34687508159602	-0.37528279432589096	0.0	1.2946239013095149	-0.4283446653090399	0.0	1.259297874721448	-0.5032648215185158	0.0	1.2689208441895905	-0.5805325425901834	0.0	1.3289573905906202	-0.4322653846163943	0.0	1.3216685592076554	-0.5106230826878676	0.0	1.3480293351046355	-0.5759437392798681	0.0
101	3.3878406708595383	1.2997145157855394	-0.5829605086570656	0.0	1.291662824488759	-0.5832633361621652	0.0	1.2887354624180052	-0.6841409072306136	0.0	1.2843630198674068	-0.8059703371933279	0.0	1.3090095280069853	-0.8258824559331086	0.0	1.298787154436818	-0.8285028762601465	0.0	1.2770391131468206	-0.8216835143563532	0.0	1.3067264821297357	-0.5832480180254155	0.0	1.280815262719051	-0.6825893639126028	0.0	1.2557653645645348	-0.7942124803945853	0.0	1.2923313829777137	-0.8054208255072726	0.0	1.2813058980690368	-0.805044695357189	0.0	1.245978385487495	-0.8128386125417683	0.0	1.3216417341999418	-0.40871055009222407	0.0	1.3435238472855686	-0.3316046626004429	0.0	1.3458627524384412	-0.37754841218606905	0.0	1.293853076105869	-0.43095391678331224	0.0	1.2585968256543547	-0.505647694116223	0.0	1.2660422851476723	-0.5832102875426328	0.0	1.3314263711451018	-0.43616338480816064	0.0	1.32827320321976	-0.5156115125693825	0.0	1.3612381409618195	-0.5783423367046174	0.0
102	3.421383647798742	1.3024263199672212	-0.5837650207058254	0.0	1.29294270046115	-0.5840396095348378	0.0	1.2887284703032231	-0.6845906583823673	0.0	1.2843507263339327	-0.8066679992817382	0.0	1.3094955228039378	-0.8264634455810026	0.0	1.2985351437492167	-0.8289824518472744	0.0	1.2763958172083016	-0.822668640048152	0.0	1.3116652227607255	-0.5843115580998451	0.0	1.2862931747600144	-0.6837700783564948	0.0	1.2572554598181793	-0.7931290181987067	0.0	1.2911166005470378	-0.8065627520806643	0.0	1.2810680102056968	-0.8050577160048117	0.0	1.2465449049305857	-0.8118258202381591	0.0	1.3229422286005037	-0.4095424086812287	0.0	1.3434627940215702	-0.33180349470407905	0.0	1.345082344672041	-0.3784430457588103	0.0	1.2930913383059628	-0.43207525911886263	0.0	1.2579804374042385	-0.5065183912658996	0.0	1.2636299289054882	-0.5841614164305575	0.0	1.3342792533776122	-0.43845550766005803	0.0	1.3340330957205693	-0.5182250352450036	0.0	1.3725916053969909	-0.5787552756962876	0.0
103	3.454926624737945	1.3050657401506085	-0.582324450873004	0.0	1.2942689155974345	-0.5826134057253427	0.0	1.2895793570095742	-0.6834775156362333	0.0	1.2843939920675764	-0.8057448922592043	0.0	1.3108126722220041	-0.8258751708993393	0.0	1.299030891626528	-0.828349566150022	0.0	1.2757026411780565	-0.8223937408191951	0.0	1.3161917975367525	-0.5832423501589044	0.0	1.2934951271080226	-0.6835271926809569	0.0	1.2588591588275355	-0.7893427931855574	0.0	1.2885417994102164	-0.806683036762943	0.0	1.2805305740469353	-0.8041042482022547	0.0	1.2472780312326788	-0.8078917223992015	0.0	1.324368899322512	-0.40878966394786576	0.0	1.3438243075482312	-0.33034309022997144	0.0	1.3445386068425	-0.3777390137996291	0.0	1.292348736110015	-0.4315774487754155	0.0	1.257398158662077	-0.5057733268970313	0.0	1.2616962049811509	-0.5832400491803034	0.0	1.3376632528060095	-0.43893233236860785	0.0	1.339218459359676	-0.518274759898322	0.0	1.381498304454979	-0.5772448093507759	0.0
104	3.4884696016771484	1.3077292472656836	-0.5789829479105039	0.0	1.2956848284202895	-0.5793444694986446	0.0	1.2908032123205826	-0.6809876624986445	0.0	1.284463076065884	-0.8035430620714015	0.0	1.312468562197094	-0.8244639592866589	0.0	1.2999333812598746	-0.8269033713564388	0.0	1.275079525548046	-0.8210727874778351	0.0	1.3203901313549467	-0.5803702579067326	0.0	1.3026738548191623	-0.6819924239976134	0.0	1.2606804175128572	-0.7829879909125516	0.0	1.2857615842969623	-0.805705910283882	0.0	1.2804953540523245	-0.8022004266638294	0.0	1.2483159490501727	-0.8010351521074864	0.0	1.3258455964163385	-0.40651473495727536	0.0	1.3444313335302143	-0.3272945031234974	0.0	1.3442221410583262	-0.37545125593037115	0.0	1.2916271812115019	-0.4294875792803612	0.0	1.2568031353027986	-0.5034901836318029	0.0	1.2602403030788276	-0.5805328517391541	0.0	1.3415190392144247	-0.4376252745638679	0.0	1.344085350008829	-0.5161015654587182	0.0	1.387964231644649	-0.5741832810358692	0.0
105	3.522012578616352	1.3104810697818887	-0.5743890871883011	0.0	1.2971638008480897	-0.5748408786853648	0.0	1.291955882317543	-0.6775255601689987	0.0	1.2844940053327163	-0.8004438318442862	0.0	1.3141233403523738	-0.8225504772453885	0.0	1.3009999688085943	-0.824998219838763	0.0	1.2745166490485482	-0.8189402090172674	0.0	1.3243864509989147	-0.5762458996911369	0.0	1.3137798210692675	-0.6794309629966053	0.0	1.2629909953812357	-0.7744937697899738	0.0	1.2844571239460374	-0.803656423494683	0.0	1.2817619972668697	-0.7994379124283244	0.0	1.2499771565336923	-0.7916100549167588	0.0	1.3273125710005977	-0.40296781462974735	0.0	1.3451819612745186	-0.32295029697396976	0.0	1.344108495019063	-0.3718207753437556	0.0	1.2909084660778316	-0.42605134971117137	0.0	1.2562123452211529	-0.4999562111828791	0.0	1.2592665374063343	-0.5763816490313485	0.0	1.345652772386783	-0.4348009992773023	0.0	1.3487586457238903	-0.512391972093299	0.0	1.392422755614075	-0.5700935526135605	0.0
106	3.555555555555555	1.3133570467212692	-0.5693248765131442	0.0	1.2986361741291832	-0.5697966851878754	0.0	1.2927269724686254	-0.6736898618365289	0.0	1.2844696498482093	-0.7968322986775005	0.0	1.3156046021832541	-0.8203535272321119	0.0	1.3020718847881676	-0.8229209892392598	0.0	1.2740109862493167	-0.8161972763457755	0.0	1.328386594056405	-0.571518633239221	0.0	1.3264697765426117	-0.6761829318878263	0.0	1.2662602130166998	-0.7644868300839176	0.0	1.2857600563124265	-0.8007369402391139	0.0	1.284666051053726	-0.7960395578080782	0.0	1.2527882697365662	-0.7802745929488235	0.0	1.328763533193872	-0.3985152114902316	0.0	1.3460742709769926	-0.31777647511582735	0.0	1.3442003300146963	-0.3672283022816929	0.0	1.2902233451214047	-0.4216728818380501	0.0	1.255709390000296	-0.495620129536907	0.0	1.258770735391	-0.5713726470117428	0.0	1.3498527135370906	-0.43092783128122236	0.0	1.3532836344043604	-0.5079505708873804	0.0	1.3955614082341246	-0.5655396357674546	0.0
107	3.5890985324947584	1.3163370053220742	-0.5645357043828216	0.0	1.3000118778597296	-0.564885329454724	0.0	1.2929972236564287	-0.6702152698163575	0.0	1.2844405391635596	-0.7931530591190132	0.0	1.316801940975438	-0.8180180983549451	0.0	1.302975123872352	-0.8208293333456623	0.0	1.2737058448380836	-0.8130558573977781	0.0	1.3325980128091834	-0.5668392037169974	0.0	1.340202843257902	-0.6725757258110646	0.0	1.2710918928417732	-0.7537831597917697	0.0	1.2898716632938678	-0.7972546197879091	0.0	1.2893059175067783	-0.7922448271365694	0.0	1.257382139973268	-0.7680400227802198	0.0	1.3302380160004033	-0.3935703639483073	0.0	1.3471694710272397	-0.312314354621578	0.0	1.3445703250686973	-0.36214593868094813	0.0	1.2896905925894486	-0.41683515959194173	0.0	1.255387435598161	-0.4910167007017424	0.0	1.258694924690711	-0.5662308052786017	0.0	1.3539556240500654	-0.42662080109838046	0.0	1.3577018333596476	-0.5035259149784249	0.0	1.398149776726235	-0.5611412822463874	0.0
108	3.622641509433962	1.31936295558395	-0.5606135675165701	0.0	1.3012602594929588	-0.5607355381943565	0.0	1.2928539556673286	-0.6677760751269932	0.0	1.2844877464472189	-0.789863210102444	0.0	1.3175741836476775	-0.8156655031584286	0.0	1.3034564173927108	-0.8187865712745905	0.0	1.2738339372258758	-0.8097807161697436	0.0	1.3371162905825262	-0.5628027589713966	0.0	1.3543650072459055	-0.6688418995331973	0.0	1.2780454646065535	-0.7434312302431291	0.0	1.2965104327500663	-0.793491338310162	0.0	1.2959933456032342	-0.7881897736619485	0.0	1.2642958221730678	-0.7562852038036015	0.0	1.3317865707873846	-0.3885816677602239	0.0	1.348536251801071	-0.30711439127485807	0.0	1.3453170864410047	-0.35708802797235284	0.0	1.2894448926594724	-0.41208787362460314	0.0	1.2553087820366604	-0.48670316446444095	0.0	1.258924904522446	-0.5616285345014203	0.0	1.3578511160807771	-0.42251272326591416	0.0	1.3620566840961748	-0.4997038282577506	0.0	1.4008282787053208	-0.5575265994926522	0.0
